<?xml version="1.0" standalone="no"?>
<!DOCTYPE svg PUBLIC "-//W3C//DTD SVG 20010904//EN"
 "http://www.w3.org/TR/2001/REC-SVG-20010904/DTD/svg10.dtd">
<svg version="1.0" xmlns="http://www.w3.org/2000/svg"
 width="434.000000pt" height="525.000000pt" viewBox="0 0 434.000000 525.000000"
 preserveAspectRatio="xMidYMid meet">

<g transform="translate(0.000000,525.000000) scale(0.100000,-0.100000)"
fill="#000000" stroke="none">
<path d="M1890 4929 c-701 -90 -1309 -599 -1534 -1284 -39 -118 -76 -280 -76
-332 l0 -32 32 18 c44 25 118 34 168 21 46 -12 113 -68 136 -112 18 -34 21
-131 6 -169 -18 -45 -71 -97 -118 -115 -58 -22 -151 -15 -193 15 -16 12 -31
21 -34 21 -13 0 24 -219 57 -341 124 -455 448 -875 854 -1108 49 -28 111 -60
138 -72 27 -11 63 -27 79 -34 145 -64 432 -132 563 -134 l32 -1 -2 76 c-3 72
-2 77 25 100 43 37 114 34 152 -6 27 -28 28 -32 21 -101 l-6 -72 82 7 c114 8
292 47 422 91 647 220 1128 813 1226 1515 16 116 17 115 -34 78 -143 -100
-330 9 -314 183 7 69 44 121 113 154 72 36 137 32 199 -12 l43 -30 -5 51 c-13
151 -85 392 -172 574 -219 457 -592 791 -1082 968 -96 35 -198 60 -321 78
-154 23 -157 23 -157 -16 0 -26 8 -39 36 -62 90 -71 100 -217 20 -304 -35 -39
-77 -55 -141 -56 -73 0 -131 27 -172 81 -24 31 -28 47 -32 114 -3 67 0 83 19
113 12 20 35 45 51 57 22 16 29 28 29 55 0 38 3 38 -110 23z m-95 -316 c4 -26
14 -61 22 -78 12 -23 15 -58 14 -152 l-2 -123 51 0 51 0 -3 63 c-2 50 -6 62
-20 62 -9 0 -20 4 -25 9 -4 5 -3 6 5 2 21 -12 13 10 -13 34 -40 38 -29 46 13
8 33 -30 70 -47 157 -74 28 -9 30 -13 30 -57 -1 -39 2 -47 17 -47 17 0 25 31
19 77 -1 6 4 15 11 20 22 14 121 42 130 37 4 -3 8 -34 8 -70 l0 -64 50 0 50 0
0 86 c0 50 8 119 20 167 10 45 21 96 22 112 3 28 6 30 37 27 56 -4 208 -59
326 -117 103 -50 255 -148 255 -163 0 -4 -38 -47 -85 -96 l-85 -90 0 -143 0
-143 65 0 65 0 0 118 0 117 69 74 c60 63 71 72 88 62 28 -14 175 -171 235
-250 49 -64 181 -319 194 -373 l6 -28 -233 -2 -234 -3 0 -60 0 -60 256 -3 257
-2 11 -46 c7 -26 11 -47 9 -48 -88 -38 -169 -126 -193 -211 -14 -46 -27 -65
-92 -125 l-75 -70 -220 0 -219 0 3 -57 3 -58 256 -3 256 -2 57 60 c32 34 59
60 60 58 2 -2 13 -20 25 -40 26 -43 107 -118 128 -118 17 0 14 -19 -24 -155
-33 -117 -75 -223 -121 -310 l-37 -70 -104 -3 c-96 -3 -106 -1 -127 19 -13 13
-24 28 -24 35 0 13 -59 29 -81 22 -7 -2 -12 -33 -13 -81 -2 -74 -2 -77 30
-108 32 -31 33 -31 123 -28 50 2 91 2 91 0 0 -11 -85 -112 -135 -161 l-55 -55
-86 86 -86 86 1 132 2 131 -66 0 -65 0 0 -161 0 -161 90 -95 c50 -51 90 -98
90 -104 0 -15 -176 -127 -275 -174 -89 -42 -245 -97 -317 -110 l-38 -7 -2 198
-3 199 -60 0 -60 0 -2 -205 c-2 -205 -2 -205 -25 -212 -36 -10 -301 -9 -318 2
-11 7 -15 30 -15 97 0 48 -1 139 -2 201 l-3 112 -55 0 -55 0 0 -196 0 -196
-37 7 c-67 12 -206 57 -293 94 -125 54 -309 171 -310 196 0 6 41 51 90 100
l90 90 0 163 0 163 -57 -3 -58 -3 -3 -130 -3 -131 -85 -84 -85 -85 -89 92
c-49 51 -94 102 -100 113 -11 21 -10 21 79 19 83 -2 93 0 123 23 32 25 33 28
33 102 l0 76 -46 0 c-43 0 -47 -2 -52 -29 -9 -44 -32 -51 -145 -44 l-100 6
-45 81 c-61 108 -103 218 -133 343 -13 56 -24 104 -24 106 0 2 22 18 49 35 27
17 64 50 81 74 17 24 35 43 40 43 5 0 34 -22 64 -48 l56 -48 250 -2 250 -2 0
58 0 57 -215 0 -215 0 -75 71 c-57 54 -78 81 -86 113 -6 22 -18 54 -26 70 -23
45 -93 116 -136 137 -29 16 -37 24 -31 37 4 9 9 29 12 44 l4 28 252 2 251 3 3
58 3 57 -58 1 c-32 0 -94 0 -137 -1 -44 -1 -123 2 -177 6 l-97 6 44 105 c47
113 111 225 179 313 60 78 215 240 229 240 6 0 45 -33 85 -74 l74 -75 -2 -115
-2 -116 54 0 c53 0 55 1 61 31 3 17 6 83 6 146 l0 114 -86 89 c-47 49 -83 93
-80 99 14 22 179 124 271 167 106 49 287 114 321 114 18 0 23 -8 29 -47z"/>
<path d="M2594 4486 c-42 -19 -64 -52 -64 -99 0 -31 9 -50 40 -89 22 -28 40
-55 40 -61 0 -5 -10 -24 -23 -41 -13 -17 -26 -38 -29 -47 -5 -14 -57 -17 -445
-23 -241 -4 -445 -4 -453 -1 -8 3 -20 15 -26 28 -6 12 -19 36 -30 54 -18 31
-18 33 -1 62 14 25 16 35 7 52 -9 16 -9 24 0 33 8 8 9 6 4 -8 -5 -13 -4 -17 4
-12 8 5 10 1 5 -11 -6 -16 -5 -16 10 -4 23 19 32 75 17 112 -26 63 -135 79
-186 27 -48 -47 -35 -144 21 -170 14 -6 25 -18 25 -27 0 -22 72 -120 88 -120
7 -1 11 3 7 8 -3 5 -1 12 5 16 5 3 10 -2 10 -12 0 -11 -21 -33 -52 -54 -36
-24 -60 -50 -78 -84 l-25 -49 0 -856 0 -855 28 -58 c22 -44 39 -63 75 -85 l47
-27 463 -3 c311 -2 475 1 503 8 54 15 114 71 136 128 17 44 18 101 18 887 0
788 -1 843 -18 887 -16 42 -45 73 -106 118 -21 15 -21 16 29 73 27 32 50 68
50 80 1 14 13 30 33 42 79 50 22 196 -76 195 -12 -1 -36 -7 -53 -14z m-1088
-41 c-25 -19 -19 -24 14 -12 37 14 61 2 74 -36 8 -21 6 -31 -9 -47 -35 -39
-105 -15 -105 36 0 17 -4 22 -15 18 -35 -14 -9 44 30 64 26 14 35 -6 11 -23z
m64 25 c0 -5 -5 -10 -11 -10 -5 0 -7 5 -4 10 3 6 8 10 11 10 2 0 4 -4 4 -10z
m39 -54 c1 -6 -5 -1 -13 9 -8 11 -12 24 -8 29 5 9 20 -17 21 -38z m19 9 c-3
-3 -9 2 -12 12 -6 14 -5 15 5 6 7 -7 10 -15 7 -18z m1046 -6 c33 -26 33 -52 0
-74 -46 -30 -108 11 -84 55 10 18 37 39 51 40 4 0 18 -9 33 -21z m-1035 -36
c0 -25 -1 -25 -8 -8 -5 11 -7 23 -4 28 8 14 13 7 12 -20z m-163 -41 c-9 -8
-26 10 -26 26 1 15 2 15 15 -2 8 -11 13 -21 11 -24z m124 -159 c0 -7 -4 -13
-10 -13 -5 0 -10 3 -10 8 0 4 -3 18 -6 32 -6 24 -6 25 9 5 9 -11 17 -26 17
-32z m631 -153 c20 -11 25 -35 9 -45 -13 -8 -267 -8 -280 0 -16 10 -12 33 8
44 23 14 238 14 263 1z m319 -110 c10 -5 22 -22 26 -37 5 -16 7 -321 4 -680
l-5 -652 -480 -3 -480 -3 -3 677 c-2 605 0 678 14 692 14 14 68 16 460 16 271
0 452 -4 464 -10z m-377 -1551 c37 -40 36 -82 -2 -120 -41 -40 -97 -41 -140 0
-39 37 -41 78 -6 120 42 49 102 50 148 0z"/>
<path d="M1989 3676 c-74 -21 -148 -67 -211 -130 -32 -32 -58 -62 -56 -65 2
-4 22 -24 44 -44 l42 -37 69 69 c78 78 132 101 237 101 83 -1 137 -27 218
-107 l67 -66 45 39 c24 21 45 42 45 47 3 22 -124 128 -194 163 -70 35 -86 38
-169 41 -54 1 -110 -3 -137 -11z"/>
<path d="M2072 3449 c-122 -24 -192 -115 -192 -248 1 -129 93 -221 222 -221
66 0 121 25 171 77 l37 39 -36 37 -37 36 -41 -35 c-22 -19 -50 -37 -62 -40
-32 -8 -69 -1 -69 13 0 6 55 55 123 108 67 53 122 102 122 108 0 6 -12 29 -27
50 -42 61 -130 93 -211 76z m82 -122 c17 -12 13 -18 -45 -68 -35 -29 -67 -58
-70 -63 -13 -17 -39 3 -39 30 0 77 99 142 154 101z"/>
<path d="M1771 2976 l-43 -44 47 -43 c134 -125 275 -165 451 -129 56 12 137
62 209 129 l47 43 -44 44 -44 44 -53 -51 c-111 -107 -247 -133 -373 -71 -37
18 -83 51 -107 77 -23 25 -43 45 -44 45 -2 0 -22 -20 -46 -44z"/>
<path d="M3193 3985 c-34 -14 -63 -59 -63 -97 0 -57 -9 -66 -69 -73 -35 -3
-84 -19 -128 -42 l-73 -36 0 -188 0 -189 60 0 60 0 2 167 3 166 54 18 c29 10
60 24 69 31 10 8 43 12 103 10 65 -2 96 1 118 13 107 55 60 236 -61 235 -24
-1 -57 -7 -75 -15z m121 -97 c8 -22 6 -32 -9 -48 -34 -38 -75 -19 -75 35 0 40
7 47 44 43 23 -2 33 -10 40 -30z"/>
<path d="M885 3981 c-29 -12 -53 -42 -60 -76 l-6 -30 14 31 c20 43 64 70 110
69 20 0 37 3 37 7 0 10 -69 9 -95 -1z"/>
<path d="M990 3970 c0 -5 7 -10 15 -10 8 0 15 -4 15 -10 0 -5 5 -10 12 -10 6
0 3 9 -7 20 -20 22 -35 26 -35 10z"/>
<path d="M976 3888 c11 -71 -59 -102 -115 -50 -13 12 -28 22 -34 22 -14 0 2
-52 23 -74 22 -22 103 -36 146 -24 21 5 45 1 91 -17 73 -30 110 -34 75 -9 -12
8 -22 22 -22 30 0 23 66 16 116 -12 23 -13 44 -20 48 -17 3 3 6 -1 6 -10 0 -9
-5 -17 -11 -17 -5 0 -8 -4 -4 -9 3 -5 1 -12 -5 -16 -5 -3 -10 -3 -10 2 0 10
-80 36 -88 28 -3 -3 2 -5 11 -5 20 0 20 3 21 -190 l1 -155 53 -3 52 -3 0 191
c0 173 -2 191 -17 196 -10 3 -34 14 -54 25 -38 20 -166 42 -182 32 -6 -3 -7
-1 -3 5 4 7 1 12 -6 12 -10 0 -13 12 -10 43 3 41 2 42 -12 17 -9 -14 -15 -19
-16 -12 0 7 -3 11 -8 8 -9 -6 -37 15 -45 34 -4 8 -4 -1 -1 -22z m64 -79 c0
-12 -5 -19 -11 -17 -6 2 -10 7 -10 11 1 4 1 14 1 23 0 8 5 12 10 9 6 -3 10
-15 10 -26z m-98 -24 c2 -5 -12 -11 -29 -13 -31 -3 -45 13 -27 30 8 9 53 -5
56 -17z m328 -109 c0 -3 -4 -8 -10 -11 -5 -3 -10 -1 -10 4 0 6 5 11 10 11 6 0
10 -2 10 -4z m40 -16 c0 -5 -5 -10 -11 -10 -5 0 -7 5 -4 10 3 6 8 10 11 10 2
0 4 -4 4 -10z"/>
<path d="M3145 3329 c-19 -17 -39 -45 -43 -63 l-8 -31 -126 -3 -126 -3 3 -47
3 -47 139 -3 c77 -1 148 -7 160 -13 12 -7 48 -10 84 -7 56 4 65 8 95 41 28 31
34 44 34 83 0 41 -5 51 -39 85 -35 35 -44 39 -89 39 -43 0 -57 -5 -87 -31z
m131 -74 c15 -23 15 -27 0 -50 -36 -55 -104 -4 -80 59 10 26 61 20 80 -9z"/>
<path d="M920 3343 c-24 -9 -60 -45 -60 -61 0 -9 7 -5 20 10 21 28 72 45 63
21 -3 -7 -9 -13 -14 -13 -5 0 -9 -3 -9 -7 0 -5 17 -8 37 -8 33 0 38 -3 46 -33
14 -47 -13 -76 -65 -69 -44 6 -49 -4 -13 -23 32 -17 26 -24 -9 -11 -16 7 -26
18 -26 30 0 11 -6 24 -14 28 -7 4 -16 15 -19 23 -3 8 -6 0 -6 -18 -1 -51 40
-87 111 -96 35 -5 65 -3 77 3 11 6 80 11 161 11 l141 0 -3 48 -3 47 -115 2
-115 1 -26 49 c-14 26 -37 54 -50 60 -24 13 -82 16 -109 6z m120 -38 c23 -25
23 -25 4 -39 -23 -17 -32 -12 -15 8 7 9 8 17 2 20 -5 3 -11 0 -14 -6 -3 -10
-8 -10 -18 1 -11 10 -11 15 -1 18 6 3 10 9 6 14 -11 19 14 8 36 -16z"/>
<path d="M2905 2752 c-56 -4 -71 -10 -57 -24 6 -6 66 -12 149 -15 l138 -4 41
-43 c22 -24 47 -47 55 -52 8 -5 22 -26 31 -47 59 -127 258 -84 258 57 0 31 -7
45 -39 77 -36 36 -43 39 -94 39 -48 0 -61 -4 -90 -30 l-35 -30 -40 40 -40 41
-119 -3 c-65 -2 -136 -4 -158 -6z m516 -92 c36 -20 16 -90 -26 -90 -29 0 -55
34 -47 63 9 36 36 46 73 27z"/>
<path d="M971 2709 l-40 -41 -31 31 c-18 17 -41 32 -53 33 -46 3 -53 2 -84 -9
-77 -28 -96 -140 -34 -195 26 -23 40 -28 85 -28 82 0 131 49 127 126 -2 34 22
64 34 43 4 -6 1 -15 -6 -20 -7 -4 -10 -12 -5 -16 4 -4 27 13 50 40 l42 47 143
0 c110 0 142 3 139 13 -4 9 -48 13 -165 15 l-161 2 -41 -41z m29 -19 c-8 -5
-17 -7 -19 -4 -3 3 1 9 9 14 8 5 17 7 19 4 3 -3 -1 -9 -9 -14z m-160 -30 c11
-11 20 -29 20 -40 0 -25 -34 -60 -58 -60 -35 0 -62 29 -59 65 1 18 5 31 9 28
5 -2 18 3 30 11 29 20 34 20 58 -4z"/>
<path d="M1103 2563 c-29 -32 -53 -61 -53 -65 0 -5 65 -8 145 -8 l145 0 0 65
0 65 -92 0 -92 0 -53 -57z"/>
<path d="M2842 2558 l3 -63 153 -3 c83 -1 152 0 152 4 0 3 -23 33 -51 65 l-51
59 -104 0 -105 0 3 -62z"/>
<path d="M2615 1984 c-54 -18 -76 -44 -82 -98 -8 -66 11 -105 64 -128 35 -15
50 -17 81 -9 78 21 119 98 87 164 -32 69 -85 94 -150 71z m65 -84 c25 -25 25
-35 -1 -61 -26 -26 -49 -21 -69 14 -14 27 -14 29 9 48 29 24 36 24 61 -1z"/>
<path d="M1483 1970 c-48 -29 -67 -63 -60 -111 11 -81 57 -116 136 -104 120
18 140 163 31 220 -39 20 -69 19 -107 -5z m85 -62 c7 -7 12 -24 12 -38 0 -63
-71 -70 -93 -9 -14 40 51 77 81 47z"/>
<path d="M2023 1953 c-8 -3 -13 -25 -13 -59 0 -52 1 -54 36 -69 45 -19 60 -18
104 3 31 15 35 22 38 58 4 59 -14 74 -91 73 -34 0 -68 -3 -74 -6z"/>
<path d="M2061 4721 c-27 -27 -26 -37 4 -66 31 -31 46 -31 75 0 l24 25 -21 28
c-25 34 -56 39 -82 13z m67 -36 c-3 -3 -9 2 -12 12 -6 14 -5 15 5 6 7 -7 10
-15 7 -18z m-24 -25 c-6 -6 -10 -3 -10 10 0 13 4 16 10 10 7 -7 7 -13 0 -20z"/>
<path d="M403 3169 c-33 -12 -46 -42 -31 -74 10 -23 17 -26 52 -23 33 2 41 7
47 28 11 46 -26 85 -68 69z m35 -24 c-10 -10 -49 -14 -43 -4 4 5 16 9 27 9 12
0 19 -2 16 -5z m-23 -45 c3 -6 -1 -7 -9 -4 -18 7 -21 14 -7 14 6 0 13 -4 16
-10z"/>
<path d="M3734 3172 c-6 -4 -16 -17 -23 -29 -14 -28 8 -78 39 -88 26 -8 79 24
87 52 9 36 -21 73 -60 73 -17 0 -37 -4 -43 -8z"/>
<path d="M697 976 c-133 -65 -177 -189 -110 -308 61 -109 170 -141 285 -85 87
43 92 55 44 120 -13 17 -16 17 -52 -8 -30 -20 -48 -25 -83 -23 -74 5 -63 25
53 97 56 35 113 71 126 81 l23 17 -24 34 c-68 98 -162 124 -262 75z m134 -102
c7 -8 10 -16 8 -18 -2 -1 -37 -24 -78 -50 -57 -37 -76 -44 -82 -34 -14 22 -10
44 13 73 38 49 110 64 139 29z"/>
<path d="M1495 976 c-65 -30 -101 -66 -127 -122 -26 -59 -25 -99 2 -160 41
-94 102 -137 191 -137 57 0 117 22 168 62 l25 19 -27 41 c-15 23 -30 41 -33
41 -3 0 -19 -11 -36 -25 -20 -17 -42 -25 -68 -25 -42 0 -70 8 -70 20 0 4 56
44 125 89 69 44 125 83 125 86 0 14 -30 62 -52 81 -64 59 -141 69 -223 30z
m123 -98 c6 -6 12 -14 12 -18 0 -8 -142 -100 -154 -100 -13 0 -5 67 10 89 31
44 95 58 132 29z"/>
<path d="M1040 763 l0 -203 150 0 150 0 0 35 0 34 -102 3 -103 3 -3 162 -2
161 -45 4 -45 3 0 -202z"/>
<path d="M2735 951 c-47 -22 -89 -64 -104 -104 -29 -77 -2 -201 54 -245 41
-33 129 -56 184 -48 112 15 179 81 188 184 9 100 -31 177 -112 213 -54 25
-157 25 -210 0z m174 -76 c34 -17 61 -70 61 -118 0 -50 -37 -99 -88 -117 -37
-13 -47 -13 -84 0 -101 36 -121 185 -30 234 35 19 105 20 141 1z"/>
<path d="M2800 790 c-22 -22 -27 -44 -7 -37 6 2 12 10 12 17 0 7 8 18 18 24
14 9 21 7 31 -6 8 -10 17 -14 25 -8 11 6 9 10 -7 19 -30 16 -49 14 -72 -9z"/>
<path d="M2827 783 c-4 -3 -7 -11 -7 -17 0 -6 5 -5 12 2 6 6 9 14 7 17 -3 3
-9 2 -12 -2z"/>
<path d="M2865 749 c-4 -6 -5 -12 -2 -15 2 -3 7 2 10 11 7 17 1 20 -8 4z"/>
<path d="M2824 734 c24 -23 19 -27 -9 -8 -14 9 -25 12 -25 7 0 -5 12 -16 26
-23 22 -12 29 -12 51 0 15 8 28 22 30 30 3 10 1 9 -7 -2 -14 -22 -33 -23 -50
-3 -7 8 -17 15 -22 15 -5 0 -2 -7 6 -16z"/>
<path d="M3290 950 c-6 -12 -8 -30 -5 -40 7 -24 52 -37 74 -23 20 13 26 50 11
69 -19 21 -67 18 -80 -6z"/>
<path d="M1790 925 l0 -35 65 0 65 0 0 -165 0 -165 45 0 45 0 2 163 3 162 63
3 62 3 0 34 0 35 -175 0 -175 0 0 -35z"/>
<path d="M2208 760 l-3 -200 48 0 47 0 0 70 0 70 29 0 c24 0 38 -12 82 -70
l53 -70 54 0 54 0 -34 41 c-18 23 -43 54 -56 70 l-23 28 30 16 c39 20 61 63
61 117 -1 52 -17 83 -56 109 -25 16 -47 19 -156 19 l-127 0 -3 -200z m234 113
c25 -22 24 -79 -1 -93 -11 -5 -47 -10 -80 -10 l-61 0 0 60 0 60 62 0 c43 0 67
-5 80 -17z"/>
<path d="M3430 925 l0 -35 65 0 65 0 0 -165 0 -165 45 0 45 0 2 163 3 162 63
3 62 3 0 34 0 35 -175 0 -175 0 0 -35z"/>
<path d="M3290 700 l0 -140 45 0 45 0 0 140 0 140 -45 0 -45 0 0 -140z"/>
</g>
</svg>
